<?xml version="1.0" standalone="no"?>
<!DOCTYPE svg PUBLIC "-//W3C//DTD SVG 20010904//EN"
 "http://www.w3.org/TR/2001/REC-SVG-20010904/DTD/svg10.dtd">
<svg version="1.0" xmlns="http://www.w3.org/2000/svg"
 width="256.000000pt" height="256.000000pt" viewBox="0 0 256.000000 256.000000"
 preserveAspectRatio="xMidYMid meet">

<g transform="translate(0.000000,256.000000) scale(0.100000,-0.100000)"
fill="#000000" stroke="none">
<path d="M150 2547 c-50 -16 -126 -93 -139 -142 -15 -56 -15 -2194 0 -2250 14
-52 90 -126 145 -143 55 -16 2189 -18 2248 -1 51 14 128 91 144 145 18 60 17
2188 0 2248 -17 55 -91 131 -143 145 -56 15 -2206 13 -2255 -2z m960 -616 c98
-37 184 -123 221 -221 26 -68 26 -192 0 -260 -38 -99 -123 -184 -222 -221 -45
-17 -80 -20 -278 -22 l-226 -2 -2 -279 c-2 -314 -3 -316 -73 -316 -74 0 -70
-39 -70 670 0 570 1 635 16 651 22 24 23 24 321 22 231 -3 269 -5 313 -22z
m971 3 c25 -23 26 -85 1 -107 -14 -13 -43 -17 -125 -19 -95 -3 -109 -5 -129
-26 -21 -21 -23 -31 -23 -150 l0 -127 128 -1 c148 -2 167 -10 167 -74 0 -63
-18 -71 -166 -73 l-129 -2 -2 -354 c-3 -397 -1 -391 -73 -391 -72 0 -70 -6
-73 391 l-2 354 -54 2 c-67 3 -91 22 -91 73 0 52 26 72 92 74 l53 1 2 142 c2
153 9 180 62 236 54 59 107 73 259 70 64 -1 88 -5 103 -19z"/>
<path d="M605 1798 c-3 -7 -4 -110 -3 -228 l3 -215 215 1 c199 0 218 2 255 21
83 44 125 112 125 203 0 93 -43 161 -130 206 -30 15 -68 18 -247 22 -176 4
-214 2 -218 -10z"/>
</g>
</svg>
